<?xml version="1.0" standalone="no"?>
<!DOCTYPE svg PUBLIC "-//W3C//DTD SVG 20010904//EN"
 "http://www.w3.org/TR/2001/REC-SVG-20010904/DTD/svg10.dtd">
<svg version="1.0" xmlns="http://www.w3.org/2000/svg"
 width="600.000000pt" height="300.000000pt" viewBox="0 0 600.000000 300.000000"
 preserveAspectRatio="xMidYMid meet">

<g transform="translate(0.000000,300.000000) scale(0.100000,-0.100000)"
fill="#000000" stroke="none">
<path d="M4595 2864 c-169 -28 -345 -124 -440 -241 l-39 -49 -71 71 c-163 165
-390 240 -610 203 -115 -20 -186 -47 -277 -107 -99 -64 -187 -163 -237 -264
-68 -140 -72 -166 -78 -499 -3 -164 -2 -318 1 -343 9 -57 46 -102 97 -115 33
-9 47 -8 83 9 75 33 76 37 76 383 0 168 5 323 11 347 29 128 122 243 244 301
124 60 293 53 414 -18 60 -35 131 -108 164 -170 55 -101 57 -126 57 -860 0
-738 -2 -715 60 -747 58 -30 144 -11 172 38 10 17 14 181 18 732 l5 710 23 64
c67 186 226 302 417 303 179 1 330 -95 408 -260 l32 -67 5 -725 c4 -552 8
-730 17 -747 39 -66 134 -86 191 -38 16 13 35 37 41 53 9 21 11 215 9 753 l-3
724 -28 80 c-47 134 -115 234 -215 318 -69 58 -186 120 -267 141 -62 17 -227
28 -280 20z"/>
<path d="M1082 2840 c-193 -51 -362 -187 -445 -361 -77 -160 -77 -154 -77
-940 0 -784 -4 -745 77 -781 50 -22 88 -18 128 14 57 45 55 17 55 771 0 664 1
698 20 758 35 114 113 205 220 259 166 84 360 58 499 -66 58 -52 82 -64 123
-64 45 0 78 19 105 59 44 65 27 119 -64 200 -72 64 -190 126 -289 151 -102 26
-252 26 -352 0z"/>
<path d="M1752 2166 l-37 -34 -3 -704 c-2 -482 1 -723 8 -768 35 -204 184
-401 374 -494 110 -54 184 -70 316 -70 200 0 346 60 491 204 70 69 94 101 127
170 67 136 74 176 79 429 6 249 1 284 -48 325 -37 31 -105 35 -150 9 -54 -32
-59 -59 -59 -296 0 -183 -3 -224 -19 -276 -25 -82 -60 -138 -119 -193 -88 -82
-186 -120 -310 -120 -186 1 -346 115 -414 297 -23 60 -23 64 -28 770 -4 551
-8 715 -18 732 -18 31 -63 53 -112 53 -32 0 -48 -7 -78 -34z"/>
</g>
</svg>
