<svg width="360" height="120" viewBox="0 0 360 120" fill="none" xmlns="http://www.w3.org/2000/svg">
  <rect x="0" y="0" width="360" height="120" rx="12" fill="#F7F9FC"/>
  <rect x="16" y="22" width="120" height="76" rx="8" fill="#E6ECF5"/>
  <rect x="26" y="32" width="100" height="56" rx="6" fill="#D3DCEB"/>
  <path d="M38 76L58 54L74 70L92 48L116 76H38Z" fill="#AAB8D1"/>
  <circle cx="52" cy="46" r="6" fill="#AAB8D1"/>

  <rect x="158" y="28" width="186" height="24" rx="6" fill="#FFFFFF"/>
  <text x="168" y="44" font-family="Arial, Helvetica, sans-serif" font-size="12" fill="#3B4A6B">image.jpg?w=500&amp;h=300</text>

  <rect x="158" y="64" width="90" height="34" rx="6" fill="#EEF3FF" stroke="#C6D5F2"/>
  <rect x="258" y="64" width="86" height="34" rx="6" fill="#EEF3FF" stroke="#C6D5F2"/>
  <text x="168" y="86" font-family="Arial, Helvetica, sans-serif" font-size="12" fill="#3B4A6B">500px</text>
  <text x="268" y="86" font-family="Arial, Helvetica, sans-serif" font-size="12" fill="#3B4A6B">300px</text>

  <path d="M146 60H158" stroke="#93A4C6" stroke-width="2"/>
  <path d="M146 60L152 54" stroke="#93A4C6" stroke-width="2"/>
  <path d="M146 60L152 66" stroke="#93A4C6" stroke-width="2"/>
  <path d="M136 60H122" stroke="#93A4C6" stroke-width="2"/>
  <path d="M136 60L130 54" stroke="#93A4C6" stroke-width="2"/>
  <path d="M136 60L130 66" stroke="#93A4C6" stroke-width="2"/>
</svg>
